{
	"asset": {
		"generator": "Blocks",
		"version": "105",
		"copyright": "Unknown"
	},
	"buffers": {
		"model": {
			"byteLength": 130032,
			"type": "arraybuffer",
			"uri": "model.bin"
		}
	},
	"accessors": {
		"accessor_position_m0-PolyPaper14_-82148": {
			"bufferView": "vec3BufferView",
			"byteOffset": 0,
			"byteStride": 12,
			"componentType": 5126,
			"count": 3024,
			"max": [ -0.3685361, 1.829067, 1.259205 ],
			"min": [ -1.461226, -0.1356129, 0.372623 ],
			"type": "VEC3"
		 },
		"accessor_normal_m0-PolyPaper14_-82148": {
			"bufferView": "vec3BufferView",
			"byteOffset": 36288,
			"byteStride": 12,
			"componentType": 5126,
			"count": 3024,
			"max": [ 1, 1, 1 ],
			"min": [ -1, -1, -1 ],
			"type": "VEC3"
		 },
		"accessor_color_m0-PolyPaper14_-82148": {
			"bufferView": "vec4BufferView",
			"byteOffset": 0,
			"byteStride": 16,
			"componentType": 5126,
			"count": 3024,
			"max": [ 1, 1, 1, 1 ],
			"min": [ 0.01176471, 0.3411765, 0.1333333, 1 ],
			"type": "VEC4"
		 },
		"accessor_indices_0_m0-PolyPaper14_-82148": {
			"bufferView": "ushortBufferView",
			"byteOffset": 0,
			"byteStride": 0,
			"componentType": 5123,
			"count": 4536,
			"max": [ 3023 ],
			"min": [ 0 ],
			"type": "SCALAR"
		 }
	},
	"bufferViews": {
		"ushortBufferView": {
			"buffer": "model",
			"byteLength": 9072,
			"byteOffset": 0,
			"target": 34963
		},
		"vec3BufferView": {
			"buffer": "model",
			"byteLength": 72576,
			"byteOffset": 9072,
			"target": 34962
		},
		"vec4BufferView": {
			"buffer": "model",
			"byteLength": 48384,
			"byteOffset": 81648,
			"target": 34962
		}
	},
	"meshes": {
		"mesh_m0-PolyPaper14_-82148": {
			"name": "mesh_m0-PolyPaper14_-82148",
			"primitives": [
				{
					"attributes": {
						"POSITION": "accessor_position_m0-PolyPaper14_-82148",
						"NORMAL": "accessor_normal_m0-PolyPaper14_-82148",
						"COLOR": "accessor_color_m0-PolyPaper14_-82148"
					},
					"indices": "accessor_indices_0_m0-PolyPaper14_-82148",
					"material": "material_mat14",
					"mode": 4
				}
			]
		}
	},
	"shaders": {
		"vertex_mat14": {
			"type": 35633,
			"uri": "https://vr.google.com/shaders/w/vs.glsl"
		},
		"fragment_mat14": {
			"type": 35632,
			"uri": "https://vr.google.com/shaders/w/fs.glsl"
		}
	},
	"programs": {
		"program_mat14": {
			"attributes": [
				"a_position",
				"a_normal",
				"a_color"				
			],
			"vertexShader": "vertex_mat14",
			"fragmentShader": "fragment_mat14"
		}
	},
	"techniques": {
		"technique_mat14": {
			"program": "program_mat14",
			"extras": {"gvrss" : "https://vr.google.com/shaders/w/gvrss/paper.json"},
			"parameters": {
				"position": {
					"type": 35665,
					"semantic": "POSITION"
				},
				"normal": {
					"type": 35665,
					"semantic": "NORMAL"
				},
				"color": {
					"type": 35666,
					"semantic": "COLOR"
				},
				"modelViewMatrix": {
					"type": 35676,
					"semantic": "MODELVIEW"
				},
				"projectionMatrix": {
					"type": 35676,
					"semantic": "PROJECTION"
				},
				"normalMatrix": {
					"type": 35675,
					"semantic": "MODELVIEWINVERSETRANSPOSE"
				},
				"color": {
					"type": 35666
				},
				"roughness": {
					"type": 5126
				},
				"metallic": {
					"type": 5126
				},
				"light0Pos": {
					"type": 35666
				},
				"light0Color": {
					"type": 35666
				},
				"light1Pos": {
					"type": 35666
				},
				"light1Color": {
					"type": 35666
				}				
			},
			"attributes": {
				"a_position": "position",
				"a_normal": "normal",
				"a_color": "color"				
			},
			"uniforms": {
				"u_modelViewMatrix": "modelViewMatrix",
				"u_projectionMatrix": "projectionMatrix",
				"u_normalMatrix": "normalMatrix",
				"u_color": "color",
				"u_roughness": "roughness",
				"u_metallic": "metallic",
				"u_light0Pos": "light0Pos",
				"u_light0Color": "light0Color",
				"u_light1Pos": "light1Pos",
				"u_light1Color": "light1Color"				
			},
			"states": {
				"enable": [
					2929,
					2884
				],
				"functions": {
					"cullFace": [1029]
				}
			}
		}
	},
	"materials": {
		"material_mat14": {
			"technique": "technique_mat14",
			"values": {
				"color": [1, 0.3411765, 0.1333333, 1],
				"roughness": 0.72,
				"metallic": 0,
				"light0Pos": [-0.02, 4.11, -0.54, 0],
				"light0Color": [0.8, 0.8, 0.8, 0],
				"light1Pos": [0.02, -4.11, 0.54, 0],
				"light1Color": [0.64, 0.5647059, 0.5647059, 0]				
			},
			"name": "material_mat14"
		}
	},
	"nodes": {
		"node_MeshObject-742904384-PolyPaper14": {
			"name": "node_MeshObject-742904384-PolyPaper14",
			"meshes": [
				"mesh_m0-PolyPaper14_-82148"
			],
			"matrix": [1, 0, 0, 0, 0, 1, 0, 0, 0, 0, 1, 0, 0, 0, 0, 1]
		}
	},
	"scene": "defaultScene",
	"scenes": {
		"defaultScene": {
			"nodes": [
				"node_MeshObject-742904384-PolyPaper14"
			],
			"extras": {

			}
		}
	}
}