{
	"asset": {
		"generator": "Blocks 4.0.1RC0 SVR",
		"version": "1.1",
		"copyright": "Unknown"
	},
	"buffers": {
		"model": {
			"byteLength": 449592,
			"type": "arraybuffer",
			"uri": "model.bin"
		}
	},
	"accessors": {
		"accessor_position_m0-PolyPaper5_-1409356": {
			"bufferView": "vec3BufferView",
			"byteOffset": 0,
			"byteStride": 12,
			"componentType": 5126,
			"count": 4694,
			"max": [ 2.339997, 1.310096, 3.029977 ],
			"min": [ -1.5601, -1.400041, -1.640058 ],
			"type": "VEC3"
		 },
		"accessor_normal_m0-PolyPaper5_-1409356": {
			"bufferView": "vec3BufferView",
			"byteOffset": 56328,
			"byteStride": 12,
			"componentType": 5126,
			"count": 4694,
			"max": [ 1, 1, 1 ],
			"min": [ -1, -1, -1 ],
			"type": "VEC3"
		 },
		"accessor_color_m0-PolyPaper5_-1409356": {
			"bufferView": "vec4BufferView",
			"byteOffset": 0,
			"byteStride": 16,
			"componentType": 5126,
			"count": 4694,
			"max": [ 1, 1, 1, 1 ],
			"min": [ 0.01176471, 0.1019608, 0, 1 ],
			"type": "VEC4"
		 },
		"accessor_indices_0_m0-PolyPaper5_-1409356": {
			"bufferView": "ushortBufferView",
			"byteOffset": 0,
			"byteStride": 0,
			"componentType": 5123,
			"count": 7368,
			"max": [ 4693 ],
			"min": [ 0 ],
			"type": "SCALAR"
		 },
		"accessor_position_m1-PolyPaper12_-1409362": {
			"bufferView": "vec3BufferView",
			"byteOffset": 112656,
			"byteStride": 12,
			"componentType": 5126,
			"count": 4540,
			"max": [ 1.84437, 0.04710812, 2.916575 ],
			"min": [ -1.380098, -1.400054, -1.551688 ],
			"type": "VEC3"
		 },
		"accessor_normal_m1-PolyPaper12_-1409362": {
			"bufferView": "vec3BufferView",
			"byteOffset": 167136,
			"byteStride": 12,
			"componentType": 5126,
			"count": 4540,
			"max": [ 1, 1, 1 ],
			"min": [ -1, -1, -1 ],
			"type": "VEC3"
		 },
		"accessor_color_m1-PolyPaper12_-1409362": {
			"bufferView": "vec4BufferView",
			"byteOffset": 75104,
			"byteStride": 16,
			"componentType": 5126,
			"count": 4540,
			"max": [ 1, 1, 1, 1 ],
			"min": [ 0.01176471, 0.1019608, 0.1019608, 1 ],
			"type": "VEC4"
		 },
		"accessor_indices_0_m1-PolyPaper12_-1409362": {
			"bufferView": "ushortBufferView",
			"byteOffset": 14736,
			"byteStride": 0,
			"componentType": 5123,
			"count": 7008,
			"max": [ 4539 ],
			"min": [ 0 ],
			"type": "SCALAR"
		 },
		"accessor_position_m2-PolyPaper5_-1409368": {
			"bufferView": "vec3BufferView",
			"byteOffset": 221616,
			"byteStride": 12,
			"componentType": 5126,
			"count": 1194,
			"max": [ 1.854877, 0.3599283, 3.029976 ],
			"min": [ -1.560009, -1.400037, -1.640058 ],
			"type": "VEC3"
		 },
		"accessor_normal_m2-PolyPaper5_-1409368": {
			"bufferView": "vec3BufferView",
			"byteOffset": 235944,
			"byteStride": 12,
			"componentType": 5126,
			"count": 1194,
			"max": [ 1, 1, 1 ],
			"min": [ -1, -1, -1 ],
			"type": "VEC3"
		 },
		"accessor_color_m2-PolyPaper5_-1409368": {
			"bufferView": "vec4BufferView",
			"byteOffset": 147744,
			"byteStride": 16,
			"componentType": 5126,
			"count": 1194,
			"max": [ 1, 1, 1, 1 ],
			"min": [ 0.01176471, 0.2627451, 0.1333333, 1 ],
			"type": "VEC4"
		 },
		"accessor_indices_0_m2-PolyPaper5_-1409368": {
			"bufferView": "ushortBufferView",
			"byteOffset": 28752,
			"byteStride": 0,
			"componentType": 5123,
			"count": 1860,
			"max": [ 1193 ],
			"min": [ 0 ],
			"type": "SCALAR"
		 }
	},
	"bufferViews": {
		"ushortBufferView": {
			"buffer": "model",
			"byteLength": 32472,
			"byteOffset": 0,
			"target": 34963
		},
		"vec3BufferView": {
			"buffer": "model",
			"byteLength": 250272,
			"byteOffset": 32472,
			"target": 34962
		},
		"vec4BufferView": {
			"buffer": "model",
			"byteLength": 166848,
			"byteOffset": 282744,
			"target": 34962
		}
	},
	"meshes": {
		"mesh_m0-PolyPaper5_-1409356": {
			"name": "mesh_m0-PolyPaper5_-1409356",
			"primitives": [
				{
					"attributes": {
						"POSITION": "accessor_position_m0-PolyPaper5_-1409356",
						"NORMAL": "accessor_normal_m0-PolyPaper5_-1409356",
						"COLOR": "accessor_color_m0-PolyPaper5_-1409356"
					},
					"indices": "accessor_indices_0_m0-PolyPaper5_-1409356",
					"material": "material_mat5",
					"mode": 4
				}
			]
		},
		"mesh_m1-PolyPaper12_-1409362": {
			"name": "mesh_m1-PolyPaper12_-1409362",
			"primitives": [
				{
					"attributes": {
						"POSITION": "accessor_position_m1-PolyPaper12_-1409362",
						"NORMAL": "accessor_normal_m1-PolyPaper12_-1409362",
						"COLOR": "accessor_color_m1-PolyPaper12_-1409362"
					},
					"indices": "accessor_indices_0_m1-PolyPaper12_-1409362",
					"material": "material_mat12",
					"mode": 4
				}
			]
		},
		"mesh_m2-PolyPaper5_-1409368": {
			"name": "mesh_m2-PolyPaper5_-1409368",
			"primitives": [
				{
					"attributes": {
						"POSITION": "accessor_position_m2-PolyPaper5_-1409368",
						"NORMAL": "accessor_normal_m2-PolyPaper5_-1409368",
						"COLOR": "accessor_color_m2-PolyPaper5_-1409368"
					},
					"indices": "accessor_indices_0_m2-PolyPaper5_-1409368",
					"material": "material_mat5",
					"mode": 4
				}
			]
		}
	},
	"shaders": {
		"vertex_mat5": {
			"type": 35633,
			"uri": "https://vr.google.com/shaders/w/vs.glsl"
		},
		"fragment_mat5": {
			"type": 35632,
			"uri": "https://vr.google.com/shaders/w/fs.glsl"
		},
		"vertex_mat12": {
			"type": 35633,
			"uri": "https://vr.google.com/shaders/w/vs.glsl"
		},
		"fragment_mat12": {
			"type": 35632,
			"uri": "https://vr.google.com/shaders/w/fs.glsl"
		},
		"vertex_mat24": {
			"type": 35633,
			"uri": "https://vr.google.com/shaders/w/glassVS.glsl"
		},
		"fragment_mat24": {
			"type": 35632,
			"uri": "https://vr.google.com/shaders/w/glassFS.glsl"
		}
	},
	"programs": {
		"program_mat5": {
			"attributes": [
				"a_position",
				"a_normal",
				"a_color"				
			],
			"vertexShader": "vertex_mat5",
			"fragmentShader": "fragment_mat5"
		},
		"program_mat12": {
			"attributes": [
				"a_position",
				"a_normal",
				"a_color"				
			],
			"vertexShader": "vertex_mat12",
			"fragmentShader": "fragment_mat12"
		},
		"program_mat24": {
			"attributes": [
				"a_position",
				"a_normal",
				"a_color"				
			],
			"vertexShader": "vertex_mat24",
			"fragmentShader": "fragment_mat24"
		}
	},
	"techniques": {
		"technique_mat5": {
			"program": "program_mat5",
			"extras": {"gvrss" : "https://vr.google.com/shaders/w/gvrss/paper.json"},
			"parameters": {
				"position": {
					"type": 35665,
					"semantic": "POSITION"
				},
				"normal": {
					"type": 35665,
					"semantic": "NORMAL"
				},
				"color": {
					"type": 35666,
					"semantic": "COLOR"
				},
				"modelViewMatrix": {
					"type": 35676,
					"semantic": "MODELVIEW"
				},
				"projectionMatrix": {
					"type": 35676,
					"semantic": "PROJECTION"
				},
				"normalMatrix": {
					"type": 35675,
					"semantic": "MODELVIEWINVERSETRANSPOSE"
				},
				"color": {
					"type": 35666
				},
				"roughness": {
					"type": 5126
				},
				"metallic": {
					"type": 5126
				},
				"light0Pos": {
					"type": 35666
				},
				"light0Color": {
					"type": 35666
				},
				"light1Pos": {
					"type": 35666
				},
				"light1Color": {
					"type": 35666
				}				
			},
			"attributes": {
				"a_position": "position",
				"a_normal": "normal",
				"a_color": "color"				
			},
			"uniforms": {
				"u_modelViewMatrix": "modelViewMatrix",
				"u_projectionMatrix": "projectionMatrix",
				"u_normalMatrix": "normalMatrix",
				"u_color": "color",
				"u_roughness": "roughness",
				"u_metallic": "metallic",
				"u_light0Pos": "light0Pos",
				"u_light0Color": "light0Color",
				"u_light1Pos": "light1Pos",
				"u_light1Color": "light1Color"				
			},
			"states": {
				"enable": [
					2929,
					2884
				],
				"functions": {
					"cullFace": [1029]
				}
			}
		},
		"technique_mat12": {
			"program": "program_mat12",
			"extras": {"gvrss" : "https://vr.google.com/shaders/w/gvrss/paper.json"},
			"parameters": {
				"position": {
					"type": 35665,
					"semantic": "POSITION"
				},
				"normal": {
					"type": 35665,
					"semantic": "NORMAL"
				},
				"color": {
					"type": 35666,
					"semantic": "COLOR"
				},
				"modelViewMatrix": {
					"type": 35676,
					"semantic": "MODELVIEW"
				},
				"projectionMatrix": {
					"type": 35676,
					"semantic": "PROJECTION"
				},
				"normalMatrix": {
					"type": 35675,
					"semantic": "MODELVIEWINVERSETRANSPOSE"
				},
				"color": {
					"type": 35666
				},
				"roughness": {
					"type": 5126
				},
				"metallic": {
					"type": 5126
				},
				"light0Pos": {
					"type": 35666
				},
				"light0Color": {
					"type": 35666
				},
				"light1Pos": {
					"type": 35666
				},
				"light1Color": {
					"type": 35666
				}				
			},
			"attributes": {
				"a_position": "position",
				"a_normal": "normal",
				"a_color": "color"				
			},
			"uniforms": {
				"u_modelViewMatrix": "modelViewMatrix",
				"u_projectionMatrix": "projectionMatrix",
				"u_normalMatrix": "normalMatrix",
				"u_color": "color",
				"u_roughness": "roughness",
				"u_metallic": "metallic",
				"u_light0Pos": "light0Pos",
				"u_light0Color": "light0Color",
				"u_light1Pos": "light1Pos",
				"u_light1Color": "light1Color"				
			},
			"states": {
				"enable": [
					2929,
					2884
				],
				"functions": {
					"cullFace": [1029]
				}
			}
		},
		"technique_mat24": {
			"program": "program_mat24",
			"extras": {"gvrss" : "https://vr.google.com/shaders/w/gvrss/glass.json"},
			"parameters": {
				"position": {
					"type": 35665,
					"semantic": "POSITION"
				},
				"normal": {
					"type": 35665,
					"semantic": "NORMAL"
				},
				"color": {
					"type": 35666,
					"semantic": "COLOR"
				},
				"modelViewMatrix": {
					"type": 35676,
					"semantic": "MODELVIEW"
				},
				"projectionMatrix": {
					"type": 35676,
					"semantic": "PROJECTION"
				},
				"normalMatrix": {
					"type": 35675,
					"semantic": "MODELVIEWINVERSETRANSPOSE"
				},
				"color": {
					"type": 35666
				},
				"roughness": {
					"type": 5126
				},
				"metallic": {
					"type": 5126
				},
				"light0Pos": {
					"type": 35666
				},
				"light0Color": {
					"type": 35666
				},
				"light1Pos": {
					"type": 35666
				},
				"light1Color": {
					"type": 35666
				}				
			},
			"attributes": {
				"a_position": "position",
				"a_normal": "normal",
				"a_color": "color"				
			},
			"uniforms": {
				"u_modelViewMatrix": "modelViewMatrix",
				"u_projectionMatrix": "projectionMatrix",
				"u_normalMatrix": "normalMatrix",
				"u_color": "color",
				"u_roughness": "roughness",
				"u_metallic": "metallic",
				"u_light0Pos": "light0Pos",
				"u_light0Color": "light0Color",
				"u_light1Pos": "light1Pos",
				"u_light1Color": "light1Color"				
			},
			"states": {
				"enable": [
					2929,
					3042
				],
				"functions": {
					"blendFuncSeparate": [775, 774, 773, 772],
					"depthMask": [true]
				}
			}
		}
	},
	"materials": {
		"material_mat5": {
			"technique": "technique_mat5",
			"values": {
				"color": [0.01176471, 0.6078432, 0.8980392, 1],
				"roughness": 1,
				"metallic": 0,
				"light0Pos": [-0.02, 4.11, -0.54, 0],
				"light0Color": [1.28, 1.232075, 1.101177, 0],
				"light1Pos": [0.02, -4.11, 0.54, 0],
				"light1Color": [0.2941177, 0.2953672, 0.32, 0]				
			},
			"name": "material_mat5"
		},
		"material_mat12": {
			"technique": "technique_mat12",
			"values": {
				"color": [1, 0.9215686, 0.2313726, 1],
				"roughness": 1,
				"metallic": 0,
				"light0Pos": [-0.02, 4.11, -0.54, 0],
				"light0Color": [1.28, 1.232075, 1.101177, 0],
				"light1Pos": [0.02, -4.11, 0.54, 0],
				"light1Color": [0.2941177, 0.2953672, 0.32, 0]				
			},
			"name": "material_mat12"
		},
		"material_mat24": {
			"technique": "technique_mat24",
			"values": {
				"color": [0.8392157, 0.8392157, 0.8392157, 0.2509804],
				"roughness": 0,
				"metallic": 0,
				"light0Pos": [-0.02, 4.11, -0.54, 0],
				"light0Color": [1.28, 1.232075, 1.101177, 0],
				"light1Pos": [0.02, -4.11, 0.54, 0],
				"light1Color": [0.2941177, 0.2953672, 0.32, 0]				
			},
			"name": "material_mat24"
		}
	},
	"nodes": {
		"node_MeshObject-1819125760-PolyPaper5": {
			"name": "node_MeshObject-1819125760-PolyPaper5",
			"meshes": [
				"mesh_m0-PolyPaper5_-1409356"
			],
			"matrix": [1, 0, 0, 0, 0, 1, 0, 0, 0, 0, 1, 0, 0, 0, 0, 1]
		},
		"node_MeshObject-1247046656-PolyPaper12": {
			"name": "node_MeshObject-1247046656-PolyPaper12",
			"meshes": [
				"mesh_m1-PolyPaper12_-1409362"
			],
			"matrix": [1, 0, 0, 0, 0, 1, 0, 0, 0, 0, 1, 0, 0, 0, 0, 1]
		},
		"node_MeshObject-2044023808-PolyPaper5": {
			"name": "node_MeshObject-2044023808-PolyPaper5",
			"meshes": [
				"mesh_m2-PolyPaper5_-1409368"
			],
			"matrix": [1, 0, 0, 0, 0, 1, 0, 0, 0, 0, 1, 0, 0, 0, 0, 1]
		}
	},
	"scene": "defaultScene",
	"scenes": {
		"defaultScene": {
			"nodes": [
				"node_MeshObject-1819125760-PolyPaper5",
				"node_MeshObject-1247046656-PolyPaper12",
				"node_MeshObject-2044023808-PolyPaper5"
			],
			"extras": {

			}
		}
	}
}